<svg id="Capa_1" data-name="Capa 1" xmlns="http://www.w3.org/2000/svg" viewBox="0 0 174.14 47.18"><defs><style>.cls-1,.cls-2{fill:#1d1d1b;}.cls-2{font-size:25px;font-family:HelveticaNeue-CondensedBold, HelveticaNeue CondensedBold;font-weight:700;}.cls-3{letter-spacing:-0.05em;}.cls-4{letter-spacing:0.01em;}</style></defs><path class="cls-1" d="M263.91,439.62h0a8.89,8.89,0,0,0-4.06-.94h-8.92V441h9s2.72-.08,4,1.52h0c1.28-1.6,4-1.52,4-1.52h8.86v-2.36H268A8.86,8.86,0,0,0,263.91,439.62Z" transform="translate(-246.65 -398.29)"/><path class="cls-1" d="M281,428.83V398.31H246.65v30.55a5.1,5.1,0,0,0,1.45,3.53,6.86,6.86,0,0,0,4.92,1.84h6.88s2.72-.08,4,1.52h0c1.28-1.6,4-1.52,4-1.52h6.45a7,7,0,0,0,5.23-1.85A5.18,5.18,0,0,0,281,428.83Zm-6.44,3H268a8.86,8.86,0,0,0-4,.94h0a8.89,8.89,0,0,0-4.06-.94h-6.78a4.68,4.68,0,0,1-3.24-1.1,2.81,2.81,0,0,1-.81-1.83V400.67h29.65V428.9a2.9,2.9,0,0,1-.78,1.85,4.55,4.55,0,0,1-3.29,1.12Z" transform="translate(-246.65 -398.29)"/><path class="cls-1" d="M271.73,420.87h-.23a1.19,1.19,0,0,1-.71-.26h0l-.13-.12a4.71,4.71,0,0,0-3.79-1.05,2.36,2.36,0,0,1-.7,0,4.31,4.31,0,0,1-.92-.65,6.3,6.3,0,0,0-6.6-1.89,8.62,8.62,0,0,0-3,1.62L251.36,422v3l5.8-4.59.06-.05c.34-.31,3.42-2.9,6.36.15l.06.06a5.44,5.44,0,0,0,1.95,1.21,4.23,4.23,0,0,0,1.53.05,2.4,2.4,0,0,1,2.07.55,3.49,3.49,0,0,0,2.31.9h.34a3,3,0,0,1,2.37.85l2.08,1.58v-3l-.63-.48A5.29,5.29,0,0,0,271.73,420.87Z" transform="translate(-246.65 -398.29)"/><polygon class="cls-1" points="17.26 37.51 17.26 37.51 17.25 37.51 17.26 37.51 17.26 37.51 17.26 37.51 17.26 37.51 17.26 37.51"/><path class="cls-1" d="M274.9,414.36a11.59,11.59,0,0,0-1-2.39l1.38-1.38-4.49-4.49-1.38,1.38a11.28,11.28,0,0,0-2.38-1v-1.95h-6.35v1.95a11.37,11.37,0,0,0-2.39,1l-1.38-1.38-4.49,4.49,1.38,1.38a11.59,11.59,0,0,0-1,2.39h-1.95v5.35l1.84-1.46V416.2h1.57l.16-.73a9.55,9.55,0,0,1,1.3-3.15l.4-.62L255,410.59l1.89-1.89,1.11,1.11.62-.4a9.55,9.55,0,0,1,3.15-1.3l.72-.16v-1.57h2.68V408l.72.16a9.55,9.55,0,0,1,3.15,1.3l.62.4,1.11-1.11,1.89,1.89-1.11,1.11.4.62a9.79,9.79,0,0,1,1.31,3.15l.15.73H275v2.92l.07.05c.16.1.31.21.47.33l.64.49.66.5v-6.13Z" transform="translate(-246.65 -398.29)"/><polygon class="cls-1" points="17.03 44.4 17.03 44.4 17.03 44.41 17.03 44.41 17.04 44.41 17.03 44.4 17.03 44.4"/><polygon class="cls-1" points="17.03 37.58 17.03 37.58 17.03 37.58 17.03 37.58 17.04 37.58 17.03 37.58 17.03 37.58 17.03 37.58"/><text class="cls-2" transform="translate(43.22 20.93)"><tspan class="cls-3">F</tspan><tspan x="11.05" y="0">acultad</tspan><tspan x="0" y="20">de </tspan><tspan class="cls-4" x="31.92" y="20">M</tspan><tspan x="52.17" y="20">ecánica</tspan></text></svg>