<?xml version="1.0" encoding="UTF-8"?><svg id="Capa_1" xmlns="http://www.w3.org/2000/svg" viewBox="0 0 2386.5 703"><defs><style>.cls-1,.cls-2{fill:#fff;}.cls-3,.cls-2{stroke:#fff;stroke-miterlimit:10;stroke-width:5px;}.cls-3,.cls-4{fill:#2c2e35;}.cls-5{fill:#010000;}</style></defs><path class="cls-1" d="M347.4,430.12c-2.66-7.73-6.2-18.06-10.66-31.04,25.2,0,48.73,.91,72.11-.54,7.25-.45,14.11-7.31,21.15-11.23-6.99-3.95-13.92-11.17-20.99-11.32-48.81-1.04-97.69-1.49-146.47,.1-10.13,.33-22.05,7.96-29.51,15.73-17.42,18.12-35.91,29.76-62.22,25-14.65-2.65-25.15,1.67-33.63,16.43-11.28,19.63-36.04,25.38-57.28,17.48-21.27-7.91-34.83-28.45-33.33-50.49,1.52-22.42,17.71-41.55,39.07-46.15,22.59-4.86,44.09,4.63,55.74,23.81,3.93,6.47,9.19,16.8,14.25,17.05,15.44,.76,38.21,3.37,45.38-5.3,28.77-34.74,64.9-38.59,104.86-35.23,1.31,.11,2.69-.55,5.65-1.2-1.56-8.95-3.13-18.02-5.07-29.12,44.95,0,88.79,0,132.64,0,11.86,0,23.87,1.07,35.51-.55,5.53-.77,10.34-6.72,15.47-10.32-5.26-4.2-10.48-11.99-15.78-12.06-71.15-.84-142.32-.86-213.47-.09-5.57,.06-12.86,6.46-16.28,11.85-14.07,22.18-35.62,32.61-58.19,26.52-22.85-6.16-38.26-25.89-38.31-49.05-.05-22.03,15.29-42.68,36.14-48.63,24.14-6.89,45.89,3.19,60.48,25.92,3.58,5.58,11.74,9.93,18.52,11.32,9.38,1.92,19.47-.05,29.19,.64,10.44,.74,17.53-1.78,19.27-13.36,2.25-14.97,12.04-17.47,25.66-16.92,25.07,1.01,50.26,1.07,75.3-.27,6.22-.33,12.08-7.51,18.11-11.55-5.89-3.46-11.68-9.68-17.69-9.91-27.87-1.06-55.93-2.15-83.66,.03-24.97,1.96-45.66-3.94-61.04-23.29-18.7-23.53-43.9-16.24-67.55-15.72-3.78,.08-8.23,6.24-10.97,10.5-15.32,23.8-36.32,32.93-60.17,25.56-22.44-6.93-37.29-27.71-36.15-50.57,1.11-22.32,16.79-41.29,38.5-46.6,24.53-6,44.91,4.4,59.2,28.27,3.07,5.13,11.51,11.09,16.55,10.35,35.43-5.18,63.09,6.54,87.05,32.66,11.87,12.94,48.79,9.91,63.74-1.68,50.95-39.49,150.19-65.06,221.06-4.55,33.81,28.87,53.83,63.7,46.27,110.1-4.31,26.44,7.85,47.11,23.18,66.97,17.93,23.23,17.53,23.31-7.66,36.39-3.98,2.07-9.1,6.01-9.73,9.75-2.64,15.59-3.76,31.44-5.59,48.58-18.49,1.78-21.67,11.69-16.64,29.64,4.77,17.04-8.7,21.89-22.61,21.24-9.61-.44-19.02-4.24-28.64-5.81-29.32-4.76-37.71-1.09-47.47,26.98-5.14,14.77-12.56,18.44-27.11,18.24-51.47-.7-101.33-11.35-130.4-29.41,4.51-14.38,9-28.71,14.1-45.01,21.56,0,44.52,.73,67.38-.5,5.91-.32,11.49-6.74,17.22-10.36-5.5-3.84-10.89-10.78-16.53-11.01-28.56-1.13-57.2-1.07-85.78-.11-6.78,.23-14.52,4.19-19.87,8.73-14.34,12.17-26.91,26.47-41.61,38.15-7.45,5.92-18.13,7.62-27.01,11.94-5.47,2.66-12.12,5.5-15.1,10.24-14.84,23.56-35.43,33.4-59.88,27.13-22.06-5.66-37.11-26.12-36.7-49.89,.41-23.47,15.86-42.71,38.85-48.36,22.52-5.54,45.31,4.71,57.1,28.15,8.5,16.89,17.98,14.82,29.28,4.68,13.5-12.11,26.05-25.3,39.92-36.95,9.07-7.62,19.74-13.35,32.86-22.01Z"/><g><path class="cls-4" d="M704.15,406.1l41.82-.52-1.73-134.17-41.82,.52c-5.34-17.47-12.68-34.32-21.87-50.16l29.21-29.49-97.59-93.66-29.21,29.49c-16.33-8.64-33.63-15.45-51.48-20.24l-.53-41.18-81.63,1.02V616.68l88.71-1.11-.53-41.18c17.73-5.24,34.85-12.48,50.95-21.53l29.95,28.75,95.15-96.07-29.96-28.75c8.78-16.06,15.68-33.08,20.57-50.69Z"/><path class="cls-2" d="M317.03,414.92c-2.77-7.96-6.48-18.59-11.14-31.94,26.34,0,50.92,.94,75.36-.56,7.58-.46,14.75-7.52,22.1-11.56-7.31-4.06-14.55-11.5-21.94-11.65-51.01-1.07-102.09-1.53-153.07,.1-10.59,.34-23.05,8.19-30.85,16.18-18.21,18.65-37.53,30.62-65.03,25.72-15.31-2.73-26.28,1.72-35.15,16.9-11.79,20.2-37.67,26.11-59.87,17.99-22.23-8.14-36.4-29.27-34.84-51.95,1.59-23.07,18.51-42.76,40.83-47.48,23.61-5,46.08,4.76,58.25,24.5,4.11,6.66,9.6,17.29,14.89,17.54,16.13,.78,39.93,3.47,47.43-5.45,30.06-35.74,67.83-39.71,109.59-36.25,1.37,.11,2.81-.56,5.91-1.24-1.63-9.21-3.28-18.54-5.29-29.97,46.97,0,92.79,0,138.62,0,12.39,0,24.95,1.1,37.11-.57,5.78-.79,10.8-6.91,16.17-10.62-5.5-4.32-10.95-12.34-16.5-12.4-74.36-.86-148.73-.89-223.09-.09-5.82,.06-13.43,6.64-17.01,12.19-14.7,22.83-37.23,33.56-60.82,27.29-23.88-6.34-39.98-26.64-40.03-50.46-.05-22.67,15.98-43.91,37.77-50.03,25.23-7.09,47.95,3.28,63.21,26.67,3.74,5.74,12.27,10.22,19.35,11.65,9.8,1.97,20.35-.05,30.51,.66,10.91,.76,18.32-1.84,20.14-13.75,2.35-15.4,12.59-17.97,26.82-17.4,26.2,1.04,52.53,1.1,78.7-.28,6.5-.34,12.62-7.73,18.92-11.88-6.16-3.56-12.2-9.96-18.49-10.19-29.12-1.1-58.45-2.21-87.43,.03-26.1,2.02-47.72-4.05-63.79-23.96-19.55-24.21-45.88-16.71-70.6-16.17-3.95,.09-8.6,6.42-11.46,10.8-16.01,24.49-37.95,33.88-62.88,26.3-23.45-7.13-38.98-28.51-37.78-52.03,1.16-22.96,17.55-42.49,40.24-47.95,25.63-6.17,46.94,4.52,61.87,29.09,3.21,5.28,12.03,11.41,17.3,10.65,37.03-5.33,65.94,6.73,90.98,33.61,12.4,13.31,50.99,10.2,66.61-1.72,53.25-40.64,156.96-66.94,231.03-4.68,35.33,29.7,56.26,65.54,48.35,113.28-4.51,27.21,8.2,48.47,24.23,68.91,18.74,23.9,18.32,23.98-8.01,37.44-4.16,2.13-9.51,6.18-10.17,10.04-2.76,16.04-3.93,32.35-5.84,49.99-19.33,1.83-22.65,12.03-17.39,30.5,4.99,17.53-9.09,22.52-23.63,21.86-10.05-.46-19.88-4.37-29.93-5.98-30.64-4.9-39.41-1.12-49.61,27.76-5.37,15.2-13.12,18.97-28.34,18.77-53.79-.72-105.9-11.68-136.28-30.26,4.71-14.8,9.4-29.54,14.74-46.31,22.53,0,46.53,.75,70.42-.51,6.18-.33,12.01-6.93,18-10.66-5.75-3.95-11.38-11.1-17.28-11.33-29.85-1.17-59.78-1.1-89.64-.12-7.09,.23-15.18,4.31-20.77,8.99-14.98,12.53-28.13,27.24-43.48,39.25-7.79,6.09-18.95,7.84-28.23,12.28-5.72,2.74-12.67,5.66-15.78,10.53-15.5,24.24-37.03,34.37-62.58,27.91-23.06-5.82-38.79-26.88-38.36-51.33,.43-24.15,16.57-43.94,40.61-49.76,23.53-5.7,47.35,4.85,59.68,28.97,8.88,17.38,18.79,15.25,30.6,4.82,14.11-12.46,27.23-26.03,41.72-38.02,9.48-7.84,20.63-13.73,34.34-22.65Z"/><path class="cls-3" d="M317.03,414.92c-2.77-7.96-6.48-18.59-11.14-31.94,26.34,0,50.92,.94,75.36-.56,7.58-.46,14.75-7.52,22.1-11.56-7.31-4.06-14.55-11.5-21.94-11.65-51.01-1.07-102.09-1.53-153.07,.1-10.59,.34-23.05,8.19-30.85,16.18-18.21,18.65-37.53,30.62-65.03,25.72-15.31-2.73-26.28,1.72-35.15,16.9-11.79,20.2-37.67,26.11-59.87,17.99-22.23-8.14-36.4-29.27-34.84-51.95,1.59-23.07,18.51-42.76,40.83-47.48,23.61-5,46.08,4.76,58.25,24.5,4.11,6.66,9.6,17.29,14.89,17.54,16.13,.78,39.93,3.47,47.43-5.45,30.06-35.74,67.83-39.71,109.59-36.25,1.37,.11,2.81-.56,5.91-1.24-1.63-9.21-3.28-18.54-5.29-29.97,46.97,0,92.79,0,138.62,0,12.39,0,24.95,1.1,37.11-.57,5.78-.79,10.8-6.91,16.17-10.62-5.5-4.32-10.95-12.34-16.5-12.4-74.36-.86-148.73-.89-223.09-.09-5.82,.06-13.43,6.64-17.01,12.19-14.7,22.83-37.23,33.56-60.82,27.29-23.88-6.34-39.98-26.64-40.03-50.46-.05-22.67,15.98-43.91,37.77-50.03,25.23-7.09,47.95,3.28,63.21,26.67,3.74,5.74,12.27,10.22,19.35,11.65,9.8,1.97,20.35-.05,30.51,.66,10.91,.76,18.32-1.84,20.14-13.75,2.35-15.4,12.59-17.97,26.82-17.4,26.2,1.04,52.53,1.1,78.7-.28,6.5-.34,12.62-7.73,18.92-11.88-6.16-3.56-12.2-9.96-18.49-10.19-29.12-1.1-58.45-2.21-87.43,.03-26.1,2.02-47.72-4.05-63.79-23.96-19.55-24.21-45.88-16.71-70.6-16.17-3.95,.09-8.6,6.42-11.46,10.8-16.01,24.49-37.95,33.88-62.88,26.3-23.45-7.13-38.98-28.51-37.78-52.03,1.16-22.96,17.55-42.49,40.24-47.95,25.63-6.17,46.94,4.52,61.87,29.09,3.21,5.28,12.03,11.41,17.3,10.65,37.03-5.33,65.94,6.73,90.98,33.61,12.4,13.31,50.99,10.2,66.61-1.72,53.25-40.64,156.96-66.94,231.03-4.68,35.33,29.7,56.26,65.54,48.35,113.28-4.51,27.21,8.2,48.47,24.23,68.91,18.74,23.9,18.32,23.98-8.01,37.44-4.16,2.13-9.51,6.18-10.17,10.04-2.76,16.04-3.93,32.35-5.84,49.99-19.33,1.83-22.65,12.03-17.39,30.5,4.99,17.53-9.09,22.52-23.63,21.86-10.05-.46-19.88-4.37-29.93-5.98-30.64-4.9-39.41-1.12-49.61,27.76-5.37,15.2-13.12,18.97-28.34,18.77-53.79-.72-105.9-11.68-136.28-30.26,4.71-14.8,9.4-29.54,14.74-46.31,22.53,0,46.53,.75,70.42-.51,6.18-.33,12.01-6.93,18-10.66-5.75-3.95-11.38-11.1-17.28-11.33-29.85-1.17-59.78-1.1-89.64-.12-7.09,.23-15.18,4.31-20.77,8.99-14.98,12.53-28.13,27.24-43.48,39.25-7.79,6.09-18.95,7.84-28.23,12.28-5.72,2.74-12.67,5.66-15.78,10.53-15.5,24.24-37.03,34.37-62.58,27.91-23.06-5.82-38.79-26.88-38.36-51.33,.43-24.15,16.57-43.94,40.61-49.76,23.53-5.7,47.35,4.85,59.68,28.97,8.88,17.38,18.79,15.25,30.6,4.82,14.11-12.46,27.23-26.03,41.72-38.02,9.48-7.84,20.63-13.73,34.34-22.65Z"/><g><path class="cls-1" d="M161.41,303.95c18.43,.11,33.25-14.05,33.65-32.17,.4-17.99-13.98-33.27-31.99-34-18.75-.76-34.91,14.75-34.85,33.45,.06,17.82,15.06,32.61,33.19,32.72Z"/><path class="cls-1" d="M56.19,420.04c18.34-.22,33.02-14.77,33.08-32.78,.05-18.45-16.5-34.13-35.12-33.27-18.03,.84-32.11,16.02-31.72,34.22,.4,18.3,14.98,32.05,33.76,31.83Z"/><path class="cls-1" d="M163.23,526.01c17.84-.32,32.76-15.55,32.71-33.4-.06-18.34-14.44-32.63-32.99-32.76-19.04-.13-34.88,15.73-34.1,34.15,.73,17.46,16.71,32.33,34.39,32.01Z"/><path class="cls-1" d="M105.39,120.94c-18.31-.37-33.47,13.73-34.11,31.73-.65,18.24,13.2,33.11,31.63,33.96,19.37,.9,35.18-13.73,35.23-32.59,.04-18-14.53-32.74-32.75-33.11Z"/></g><g><path class="cls-5" d="M853.17,138.59L810.14,2.97h42.03l27.15,92.86L906.47,2.97h40.62l-43.24,135.62h-50.68Z"/><path class="cls-5" d="M1022.73,70.68c0,20.19,14.88,34.25,34.39,34.25,15.09,0,25.74-8.32,31.98-18.81l29.97,21.39c-12.47,19.4-32.38,33.86-63.55,33.86-40.22,0-73.2-29.9-73.2-70.68S1015.9,0,1056.12,0c28.75,0,49.47,12.67,62.74,33.86l-30.97,21.58c-7.04-12.08-17.29-18.81-31.77-18.81-18.71,0-33.39,14.65-33.39,34.06Z"/><path class="cls-5" d="M1119.5,70.68c0-40.19,33.38-70.68,73.4-70.68s73.61,30.49,73.61,70.68-32.98,70.68-73.61,70.68-73.4-30.1-73.4-70.68Zm106.58,0c0-18.42-14.88-34.06-33.18-34.06s-32.98,15.64-32.98,34.06,14.88,34.05,32.98,34.05,33.18-15.24,33.18-34.05Z"/><path class="cls-5" d="M1316.01,67.52v71.08h-38.41V2.97h44.84l43.44,72.46V2.97h38.41V138.59h-44.85l-43.44-71.08Z"/><path class="cls-5" d="M1489.79,141.57c-43.04,0-74.41-31.48-74.41-70.49S1444.94,0,1491,0c31.58,0,51.68,15.44,60.54,29.7l-31.17,21.98c-8.05-10.1-17.5-15.64-30.37-15.64-19.51,0-33.98,14.65-33.98,35.64s15.28,34.85,34.18,34.85c11.66,0,21.12-4.75,27.15-14.65h-31.58v-31.29h75.01v10.1c0,42.96-31.98,70.88-70.99,70.88Z"/><path class="cls-5" d="M1610.68,138.59h-39.61V2.97h62.34c28.35,0,48.87,16.04,48.87,46.92,0,18.81-10.86,34.65-29.36,41.78l39.01,46.92h-50.28l-30.97-41.78v41.78Zm0-101.18v27.92h13.28c12.47,0,17.9-5.55,17.9-13.66,0-8.51-4.43-14.26-17.9-14.26h-13.28Z"/><path class="cls-5" d="M1696.58,2.97h105.18V36.23h-65.56v17.82h59.52v32.87h-59.52v18.41h65.96v33.27h-105.58V2.97Z"/><path class="cls-5" d="M1810.03,95.43h39.21c.61,7.72,5.23,15.25,19.71,15.25,9.65,0,15.88-3.17,15.88-9.11s-8.65-8.71-20.31-11.48c-21.72-5.15-52.89-11.48-52.89-45.54,0-26.73,21.12-44.15,53.5-44.15,33.99,0,54.1,18.02,56.31,46.93h-38.61c-.41-6.93-2.82-15.64-18.31-15.64-9.65,0-13.87,4.16-13.87,8.91,0,8.51,11.06,11.09,24.74,14.06,21.52,4.75,49.27,10.7,49.27,42.77,0,24.95-19.71,43.75-56.71,43.75s-55.91-16.23-57.92-45.73Z"/><path class="cls-5" d="M1932.73,70.68c0-40.19,33.38-70.68,73.4-70.68s73.61,30.49,73.61,70.68-32.98,70.68-73.61,70.68-73.4-30.1-73.4-70.68Zm106.58,0c0-18.42-14.88-34.06-33.18-34.06s-32.98,15.64-32.98,34.06,14.88,34.05,32.98,34.05,33.18-15.24,33.18-34.05Z"/></g><g><path class="cls-5" d="M816.17,327.79V192.17h39.62v135.62h-39.62Z"/><path class="cls-5" d="M908.28,256.71v71.08h-38.41V192.17h44.84l43.44,72.46v-72.46h38.41v135.62h-44.85l-43.44-71.08Z"/><path class="cls-5" d="M1044.86,327.79v-101.18h-38.21v-34.45h116.04v34.45h-38.21v101.18h-39.62Z"/><path class="cls-5" d="M1132.78,192.17h105.18v33.26h-65.56v17.82h59.52v32.87h-59.52v18.42h65.96v33.26h-105.58V192.17Z"/><path class="cls-5" d="M1290.06,327.79h-39.62V192.17h62.34c28.35,0,48.87,16.04,48.87,46.92,0,18.81-10.86,34.65-29.36,41.78l39.01,46.92h-50.28l-30.97-41.78v41.78Zm0-101.18v27.92h13.27c12.47,0,17.9-5.55,17.9-13.66,0-8.51-4.43-14.26-17.9-14.26h-13.27Z"/><path class="cls-5" d="M1414.37,256.71v71.08h-38.41V192.17h44.84l43.44,72.46v-72.46h38.41v135.62h-44.85l-43.44-71.08Z"/><path class="cls-5" d="M1605.25,307.99h-48.27l-6.24,19.8h-40.02l46.25-135.62h50.68l46.05,135.62h-42.23l-6.24-19.8Zm-24.13-77.61l-14.48,46.13h28.76l-14.28-46.13Z"/><path class="cls-5" d="M1688.13,259.88c0,20.19,14.88,34.25,34.39,34.25,15.09,0,25.74-8.32,31.98-18.81l29.97,21.39c-12.47,19.4-32.38,33.86-63.55,33.86-40.22,0-73.2-29.9-73.2-70.68s33.58-70.68,73.81-70.68c28.75,0,49.47,12.67,62.74,33.86l-30.97,21.58c-7.04-12.08-17.29-18.81-31.77-18.81-18.71,0-33.39,14.65-33.39,34.06Z"/><path class="cls-5" d="M1793.94,327.79V192.17h39.62v135.62h-39.62Z"/><path class="cls-5" d="M1844.63,259.88c0-40.19,33.38-70.68,73.4-70.68s73.61,30.49,73.61,70.68-32.98,70.68-73.61,70.68-73.4-30.1-73.4-70.68Zm106.58,0c0-18.42-14.88-34.06-33.18-34.06s-32.98,15.64-32.98,34.06,14.88,34.05,32.98,34.05,33.18-15.25,33.18-34.05Z"/><path class="cls-5" d="M2041.14,256.71v71.08h-38.41V192.17h44.84l43.44,72.46v-72.46h38.41v135.62h-44.85l-43.44-71.08Z"/><path class="cls-5" d="M2232.02,307.99h-48.27l-6.24,19.8h-40.02l46.25-135.62h50.68l46.05,135.62h-42.23l-6.24-19.8Zm-24.13-77.61l-14.48,46.13h28.76l-14.28-46.13Z"/><path class="cls-5" d="M2288.56,192.17h39.61v101.17h58.32v34.45h-97.94V192.17Z"/></g><g><path class="cls-5" d="M816.17,385.25h58.52c45.25,0,73.2,29.7,73.2,67.12s-27.95,68.51-73.2,68.51h-58.52v-135.62Zm39.62,34.45v66.72h18.9c20.11,0,32.78-14.25,32.78-33.06s-12.67-33.66-32.78-33.66h-18.9Z"/><path class="cls-5" d="M958.98,385.25h105.18v33.26h-65.56v17.82h59.53v32.87h-59.53v18.41h65.96v33.27h-105.58v-135.62Z"/><path class="cls-5" d="M1114.87,520.87v-135.62h39.62v135.62h-39.62Z"/><path class="cls-5" d="M1206.98,449.79v71.08h-38.41v-135.62h44.85l43.44,72.46v-72.46h38.41v135.62h-44.84l-43.44-71.08Z"/><path class="cls-5" d="M1380.77,523.84c-43.04,0-74.41-31.48-74.41-70.49s29.57-71.08,75.62-71.08c31.57,0,51.68,15.44,60.53,29.7l-31.17,21.98c-8.04-10.1-17.49-15.64-30.37-15.64-19.51,0-33.99,14.65-33.99,35.64s15.29,34.85,34.19,34.85c11.66,0,21.12-4.75,27.15-14.65h-31.57v-31.29h75.01v10.1c0,42.96-31.98,70.88-70.99,70.88Z"/><path class="cls-5" d="M1462.05,385.25h105.18v33.26h-65.56v17.82h59.52v32.87h-59.52v18.41h65.96v33.27h-105.58v-135.62Z"/><path class="cls-5" d="M1618.12,449.79v71.08h-38.41v-135.62h44.84l43.44,72.46v-72.46h38.41v135.62h-44.85l-43.44-71.08Z"/><path class="cls-5" d="M1720.51,520.87v-135.62h39.62v135.62h-39.62Z"/><path class="cls-5" d="M1774.22,385.25h105.18v33.26h-65.57v17.82h59.53v32.87h-59.53v18.41h65.97v33.27h-105.58v-135.62Z"/><path class="cls-5" d="M1931.51,520.87h-39.62v-135.62h62.34c28.35,0,48.87,16.04,48.87,46.92,0,18.81-10.86,34.65-29.36,41.78l39.01,46.92h-50.28l-30.97-41.78v41.78Zm0-101.18v27.92h13.27c12.47,0,17.9-5.55,17.9-13.66,0-8.51-4.43-14.26-17.9-14.26h-13.27Z"/><path class="cls-5" d="M2012.58,378.31v-30.69l50.68-10.69v31.08l-50.68,10.3Zm4.83,142.56v-135.62h39.61v135.62h-39.61Z"/><path class="cls-5" d="M2159.6,501.07h-48.27l-6.24,19.8h-40.02l46.25-135.62h50.68l46.05,135.62h-42.23l-6.24-19.8Zm-24.13-77.61l-14.48,46.13h28.76l-14.28-46.13Z"/></g><g><path class="cls-4" d="M826.77,564.04h67.53v7.93h-58.82v42.87h54.72v7.92h-54.72v44.17h62.11v7.93h-70.82v-110.81Z"/><path class="cls-4" d="M912.71,650.27c1.48,11.48,10.52,18.28,26.12,18.28s23-6.15,23-15.86c0-11.65-12.16-13.59-24.98-15.85-14.29-2.43-29.25-5.18-29.25-21.84,0-13.26,11.34-22.32,28.92-22.32s29.91,9.38,30.89,23.94h-8.05c-.82-8.41-7.72-16.5-23-16.5-12.98,0-20.54,5.82-20.54,14.56,0,10.19,10.02,12.62,21.36,14.72,15.12,2.75,32.7,4.69,32.7,22.97,0,13.75-11.5,23.78-31.22,23.78s-32.21-8.9-34.18-25.88h8.22Z"/><path class="cls-4" d="M988.64,658.84v44.16h-8.05v-109.03h8.05v15.85c6.74-10.03,18.57-17.14,34.34-17.14,23.5,0,41.9,18.12,41.9,41.58s-18.4,41.73-41.9,41.73c-15.77,0-27.6-7.12-34.34-17.14Zm-.49-24.43c0,19.26,14.95,33.97,34.34,33.97s34.34-14.88,34.34-33.97-14.63-34.13-34.34-34.13-34.34,14.72-34.34,34.13Z"/><path class="cls-4" d="M1157.72,634.25c0,23.62-18.4,41.73-42.23,41.73s-42.39-18.12-42.39-41.73,18.4-41.58,42.39-41.58,42.23,18.12,42.23,41.58Zm-76.57,.16c0,19.09,14.62,33.97,34.34,33.97s34.18-14.88,34.18-33.97-14.62-34.13-34.18-34.13-34.34,14.88-34.34,34.13Z"/><path class="cls-4" d="M1245.15,655.77c-7.56,12.29-19.72,20.22-37.8,20.22-24.15,0-41.41-18.28-41.41-41.9s17.25-41.41,41.41-41.41c18.89,0,30.4,8.09,37.8,20.39l-6.25,4.2c-6.41-10.35-15.61-16.82-31.55-16.82-19.88,0-33.35,14.72-33.35,33.81s13.64,33.97,33.52,33.97c15.94,0,24.98-6.31,31.38-16.66l6.25,4.21Z"/><path class="cls-4" d="M1263.07,606.26c4.76-7.28,13.15-13.59,27.44-13.59,19.23,0,31.87,12.78,31.87,32.68v49.5h-8.05v-48.53c0-16.34-9.2-26.05-24.65-26.05s-26.62,10.68-26.62,28.31v46.26h-8.05v-110.81h8.05v42.22Z"/><path class="cls-4" d="M1367.42,674.85v-7.44l44.53-40.93c11.01-9.87,17.75-17.31,17.75-31.87,0-13.59-10.02-23.78-25.63-23.78s-23.17,6.63-29.9,17.63l-6.9-4.05c7.72-12.94,18.57-21.52,36.81-21.52,20.54,0,34.67,14.07,34.67,31.71s-8.87,26.05-21.03,37.2l-38.61,35.6h60.8v7.44h-72.46Z"/><path class="cls-4" d="M1451.55,600.44c0-21.52,16.6-37.53,38.29-37.53s37.96,16.01,37.96,37.53v38.5c0,21.67-16.59,37.69-37.96,37.69s-38.29-16.01-38.29-37.69v-38.5Zm67.7,0c0-17.31-12.49-29.77-29.42-29.77s-29.74,12.46-29.74,29.77v38.5c0,17.31,12.48,29.92,29.74,29.92s29.42-12.62,29.42-29.92v-38.5Z"/><path class="cls-4" d="M1536.36,674.85v-7.44l44.53-40.93c11.01-9.87,17.75-17.31,17.75-31.87,0-13.59-10.02-23.78-25.63-23.78s-23.17,6.63-29.91,17.63l-6.9-4.05c7.72-12.94,18.57-21.52,36.81-21.52,20.54,0,34.67,14.07,34.67,31.71s-8.88,26.05-21.03,37.2l-38.61,35.6h60.79v7.44h-72.46Z"/><path class="cls-4" d="M1618.19,674.85v-7.44l44.53-40.93c11.01-9.87,17.75-17.31,17.75-31.87,0-13.59-10.02-23.78-25.63-23.78s-23.17,6.63-29.91,17.63l-6.9-4.05c7.72-12.94,18.56-21.52,36.81-21.52,20.54,0,34.67,14.07,34.67,31.71s-8.87,26.05-21.03,37.2l-38.61,35.6h60.79v7.44h-72.46Z"/></g></g></svg>