<?xml version="1.0" encoding="UTF-8"?><svg id="Capa_1" xmlns="http://www.w3.org/2000/svg" viewBox="0 0 2400.5 712.22"><defs><style>.cls-1{stroke:#c1ae7e;}.cls-1,.cls-2,.cls-3{stroke-miterlimit:10;}.cls-1,.cls-3{fill:#c1ae7e;}.cls-4,.cls-2{fill:#fff;}.cls-2,.cls-3{stroke:#fff;stroke-width:5px;}.cls-5{fill:#2c2e35;}.cls-6{fill:#010000;}</style></defs><path class="cls-4" d="M360.4,431.62c-2.66-7.73-6.2-18.06-10.66-31.04,25.2,0,48.73,.91,72.11-.54,7.25-.45,14.11-7.31,21.15-11.23-6.99-3.95-13.92-11.17-20.99-11.32-48.81-1.04-97.69-1.49-146.47,.1-10.13,.33-22.05,7.96-29.51,15.73-17.42,18.12-35.91,29.76-62.22,25-14.65-2.65-25.15,1.67-33.63,16.43-11.28,19.63-36.04,25.38-57.28,17.48-21.27-7.91-34.83-28.45-33.33-50.49,1.52-22.42,17.71-41.55,39.07-46.15,22.59-4.86,44.09,4.63,55.74,23.81,3.93,6.47,9.19,16.8,14.25,17.05,15.44,.76,38.21,3.37,45.38-5.3,28.77-34.74,64.9-38.59,104.86-35.23,1.31,.11,2.69-.55,5.65-1.2-1.56-8.95-3.13-18.02-5.07-29.12,44.95,0,88.79,0,132.64,0,11.86,0,23.87,1.07,35.51-.55,5.53-.77,10.34-6.72,15.47-10.32-5.26-4.2-10.48-11.99-15.78-12.06-71.15-.84-142.32-.86-213.47-.09-5.57,.06-12.86,6.46-16.28,11.85-14.07,22.18-35.62,32.61-58.19,26.52-22.85-6.16-38.26-25.89-38.31-49.05-.05-22.03,15.29-42.68,36.14-48.63,24.14-6.89,45.89,3.19,60.48,25.92,3.58,5.58,11.74,9.93,18.52,11.32,9.38,1.92,19.47-.05,29.19,.64,10.44,.74,17.53-1.78,19.27-13.36,2.25-14.97,12.04-17.47,25.66-16.92,25.07,1.01,50.26,1.07,75.3-.27,6.22-.33,12.08-7.51,18.11-11.55-5.89-3.46-11.68-9.68-17.69-9.91-27.87-1.06-55.93-2.15-83.66,.03-24.97,1.96-45.66-3.94-61.04-23.29-18.7-23.53-43.9-16.24-67.55-15.72-3.78,.08-8.23,6.24-10.97,10.5-15.32,23.8-36.32,32.93-60.17,25.56-22.44-6.93-37.29-27.71-36.15-50.57,1.11-22.32,16.79-41.29,38.5-46.6,24.53-6,44.91,4.4,59.2,28.27,3.07,5.13,11.51,11.09,16.55,10.35,35.43-5.18,63.09,6.54,87.05,32.66,11.87,12.94,48.79,9.91,63.74-1.68,50.95-39.49,150.19-65.06,221.06-4.55,33.81,28.87,53.83,63.7,46.27,110.1-4.31,26.44,7.85,47.11,23.18,66.97,17.93,23.23,17.53,23.31-7.66,36.39-3.98,2.07-9.1,6.01-9.73,9.75-2.64,15.59-3.76,31.44-5.59,48.58-18.49,1.78-21.67,11.69-16.64,29.64,4.77,17.04-8.7,21.89-22.61,21.24-9.61-.44-19.02-4.24-28.64-5.81-29.32-4.76-37.71-1.09-47.47,26.98-5.14,14.77-12.56,18.44-27.11,18.24-51.47-.7-101.33-11.35-130.4-29.41,4.51-14.38,9-28.71,14.1-45.01,21.56,0,44.52,.73,67.38-.5,5.91-.32,11.49-6.74,17.22-10.36-5.5-3.84-10.89-10.78-16.53-11.01-28.56-1.13-57.2-1.07-85.78-.11-6.78,.23-14.52,4.19-19.87,8.73-14.34,12.17-26.91,26.47-41.61,38.15-7.45,5.92-18.13,7.62-27.01,11.94-5.47,2.66-12.12,5.5-15.1,10.24-14.84,23.56-35.43,33.4-59.88,27.13-22.06-5.66-37.11-26.12-36.7-49.89,.41-23.47,15.86-42.71,38.85-48.36,22.52-5.54,45.31,4.71,57.1,28.15,8.5,16.89,17.98,14.82,29.28,4.68,13.5-12.11,26.05-25.3,39.92-36.95,9.07-7.62,19.74-13.35,32.86-22.01Z"/><path class="cls-5" d="M708.27,411.14l42.07-.53-1.74-135.83-42.07,.53c-5.37-17.69-12.75-34.75-22-50.78l29.38-29.86-98.16-94.83-29.38,29.86c-16.42-8.75-33.82-15.64-51.79-20.5l-.53-41.69-82.11,1.03V624.33l89.23-1.12-.53-41.69c17.83-5.31,35.05-12.63,51.24-21.79l30.12,29.11,95.7-97.27-30.13-29.11c8.83-16.25,15.78-33.49,20.69-51.32Z"/><path class="cls-2" d="M318.88,420.07c-2.79-8.06-6.52-18.82-11.21-32.34,26.49,0,51.22,.95,75.8-.56,7.63-.47,14.83-7.61,22.23-11.7-7.35-4.11-14.63-11.64-22.07-11.8-51.31-1.08-102.69-1.55-153.97,.1-10.65,.34-23.18,8.3-31.03,16.38-18.31,18.88-37.75,31-65.41,26.04-15.4-2.76-26.44,1.74-35.35,17.11-11.86,20.45-37.89,26.44-60.22,18.21-22.36-8.24-36.61-29.63-35.04-52.6,1.6-23.36,18.62-43.29,41.07-48.07,23.75-5.06,46.35,4.82,58.6,24.8,4.13,6.74,9.66,17.5,14.98,17.76,16.23,.79,40.17,3.51,47.71-5.52,30.24-36.19,68.23-40.2,110.24-36.7,1.38,.12,2.83-.57,5.94-1.25-1.64-9.33-3.29-18.77-5.33-30.34,47.25,0,93.34,0,139.43,0,12.47,0,25.1,1.12,37.33-.58,5.81-.8,10.87-7,16.26-10.75-5.53-4.37-11.01-12.49-16.59-12.56-74.8-.87-149.61-.9-224.4-.09-5.86,.06-13.51,6.72-17.11,12.35-14.79,23.11-37.44,33.97-61.17,27.63-24.02-6.42-40.21-26.97-40.27-51.09-.05-22.95,16.08-44.46,37.99-50.65,25.38-7.18,48.24,3.32,63.58,27,3.76,5.81,12.34,10.35,19.47,11.79,9.86,2,20.47-.05,30.69,.66,10.97,.77,18.43-1.86,20.26-13.92,2.36-15.59,12.66-18.19,26.98-17.62,26.36,1.05,52.84,1.11,79.16-.28,6.54-.35,12.7-7.83,19.03-12.03-6.19-3.6-12.27-10.08-18.6-10.32-29.29-1.11-58.79-2.24-87.95,.04-26.25,2.04-48-4.1-64.17-24.26-19.66-24.51-46.15-16.92-71.01-16.37-3.97,.09-8.65,6.5-11.53,10.93-16.11,24.79-38.18,34.3-63.25,26.63-23.59-7.22-39.2-28.86-38.01-52.67,1.17-23.25,17.65-43.01,40.47-48.54,25.78-6.25,47.21,4.58,62.23,29.45,3.23,5.34,12.1,11.55,17.4,10.78,37.24-5.39,66.33,6.81,91.51,34.02,12.47,13.48,51.29,10.33,67.01-1.75,53.56-41.14,157.89-67.77,232.39-4.74,35.54,30.07,56.59,66.36,48.64,114.69-4.53,27.55,8.25,49.07,24.37,69.77,18.85,24.2,18.42,24.28-8.06,37.9-4.19,2.15-9.57,6.26-10.23,10.16-2.77,16.24-3.95,32.75-5.87,50.61-19.44,1.85-22.78,12.18-17.49,30.88,5.02,17.75-9.14,22.8-23.77,22.13-10.11-.46-20-4.42-30.11-6.05-30.82-4.96-39.64-1.13-49.9,28.11-5.4,15.39-13.2,19.21-28.5,19-54.11-.73-106.52-11.83-137.08-30.63,4.74-14.98,9.46-29.91,14.82-46.89,22.66,0,46.8,.76,70.83-.52,6.21-.33,12.08-7.02,18.11-10.79-5.79-4-11.44-11.23-17.38-11.47-30.02-1.18-60.13-1.12-90.17-.12-7.13,.24-15.27,4.37-20.89,9.1-15.07,12.68-28.29,27.58-43.74,39.74-7.83,6.17-19.06,7.94-28.4,12.44-5.75,2.77-12.74,5.73-15.88,10.66-15.6,24.54-37.25,34.79-62.94,28.26-23.19-5.9-39.02-27.21-38.58-51.97,.43-24.45,16.67-44.49,40.84-50.38,23.67-5.77,47.63,4.91,60.03,29.33,8.93,17.59,18.9,15.44,30.78,4.88,14.19-12.61,27.39-26.35,41.96-38.49,9.54-7.94,20.75-13.9,34.54-22.93Z"/><path class="cls-3" d="M318.88,420.07c-2.79-8.06-6.52-18.82-11.21-32.34,26.49,0,51.22,.95,75.8-.56,7.63-.47,14.83-7.61,22.23-11.7-7.35-4.11-14.63-11.64-22.07-11.8-51.31-1.08-102.69-1.55-153.97,.1-10.65,.34-23.18,8.3-31.03,16.38-18.31,18.88-37.75,31-65.41,26.04-15.4-2.76-26.44,1.74-35.35,17.11-11.86,20.45-37.89,26.44-60.22,18.21-22.36-8.24-36.61-29.63-35.04-52.6,1.6-23.36,18.62-43.29,41.07-48.07,23.75-5.06,46.35,4.82,58.6,24.8,4.13,6.74,9.66,17.5,14.98,17.76,16.23,.79,40.17,3.51,47.71-5.52,30.24-36.19,68.23-40.2,110.24-36.7,1.38,.12,2.83-.57,5.94-1.25-1.64-9.33-3.29-18.77-5.33-30.34,47.25,0,93.34,0,139.43,0,12.47,0,25.1,1.12,37.33-.58,5.81-.8,10.87-7,16.26-10.75-5.53-4.37-11.01-12.49-16.59-12.56-74.8-.87-149.61-.9-224.4-.09-5.86,.06-13.51,6.72-17.11,12.35-14.79,23.11-37.44,33.97-61.17,27.63-24.02-6.42-40.21-26.97-40.27-51.09-.05-22.95,16.08-44.46,37.99-50.65,25.38-7.18,48.24,3.32,63.58,27,3.76,5.81,12.34,10.35,19.47,11.79,9.86,2,20.47-.05,30.69,.66,10.97,.77,18.43-1.86,20.26-13.92,2.36-15.59,12.66-18.19,26.98-17.62,26.36,1.05,52.84,1.11,79.16-.28,6.54-.35,12.7-7.83,19.03-12.03-6.19-3.6-12.27-10.08-18.6-10.32-29.29-1.11-58.79-2.24-87.95,.04-26.25,2.04-48-4.1-64.17-24.26-19.66-24.51-46.15-16.92-71.01-16.37-3.97,.09-8.65,6.5-11.53,10.93-16.11,24.79-38.18,34.3-63.25,26.63-23.59-7.22-39.2-28.86-38.01-52.67,1.17-23.25,17.65-43.01,40.47-48.54,25.78-6.25,47.21,4.58,62.23,29.45,3.23,5.34,12.1,11.55,17.4,10.78,37.24-5.39,66.33,6.81,91.51,34.02,12.47,13.48,51.29,10.33,67.01-1.75,53.56-41.14,157.89-67.77,232.39-4.74,35.54,30.07,56.59,66.36,48.64,114.69-4.53,27.55,8.25,49.07,24.37,69.77,18.85,24.2,18.42,24.28-8.06,37.9-4.19,2.15-9.57,6.26-10.23,10.16-2.77,16.24-3.95,32.75-5.87,50.61-19.44,1.85-22.78,12.18-17.49,30.88,5.02,17.75-9.14,22.8-23.77,22.13-10.11-.46-20-4.42-30.11-6.05-30.82-4.96-39.64-1.13-49.9,28.11-5.4,15.39-13.2,19.21-28.5,19-54.11-.73-106.52-11.83-137.08-30.63,4.74-14.98,9.46-29.91,14.82-46.89,22.66,0,46.8,.76,70.83-.52,6.21-.33,12.08-7.02,18.11-10.79-5.79-4-11.44-11.23-17.38-11.47-30.02-1.18-60.13-1.12-90.17-.12-7.13,.24-15.27,4.37-20.89,9.1-15.07,12.68-28.29,27.58-43.74,39.74-7.83,6.17-19.06,7.94-28.4,12.44-5.75,2.77-12.74,5.73-15.88,10.66-15.6,24.54-37.25,34.79-62.94,28.26-23.19-5.9-39.02-27.21-38.58-51.97,.43-24.45,16.67-44.49,40.84-50.38,23.67-5.77,47.63,4.91,60.03,29.33,8.93,17.59,18.9,15.44,30.78,4.88,14.19-12.61,27.39-26.35,41.96-38.49,9.54-7.94,20.75-13.9,34.54-22.93Z"/><g><path class="cls-4" d="M162.34,307.72c18.54,.11,33.44-14.23,33.84-32.57,.4-18.21-14.06-33.68-32.18-34.42-18.86-.77-35.11,14.93-35.05,33.86,.06,18.04,15.15,33.02,33.39,33.13Z"/><path class="cls-4" d="M56.5,425.25c18.44-.22,33.22-14.95,33.27-33.18,.05-18.67-16.6-34.55-35.32-33.68-18.14,.85-32.3,16.22-31.9,34.64,.4,18.53,15.07,32.45,33.95,32.22Z"/><path class="cls-4" d="M164.17,532.53c17.95-.32,32.95-15.75,32.9-33.82-.06-18.57-14.53-33.04-33.19-33.17-19.15-.14-35.08,15.92-34.31,34.57,.74,17.67,16.81,32.73,34.59,32.41Z"/><path class="cls-4" d="M106,122.44c-18.42-.37-33.67,13.9-34.31,32.12-.65,18.47,13.27,33.52,31.81,34.39,19.48,.91,35.39-13.9,35.43-32.99,.04-18.23-14.62-33.14-32.94-33.52Z"/></g><g><path class="cls-6" d="M858.17,140.31L814.88,3.01h42.28l27.31,94.01L911.77,3.01h40.86l-43.5,137.31h-50.98Z"/><path class="cls-6" d="M1028.72,71.56c0,20.45,14.97,34.68,34.59,34.68,15.18,0,25.89-8.42,32.16-19.04l30.14,21.65c-12.54,19.64-32.57,34.28-63.92,34.28-40.45,0-73.63-30.27-73.63-71.56S1021.85,0,1062.31,0c28.92,0,49.76,12.83,63.11,34.28l-31.15,21.85c-7.08-12.22-17.4-19.04-31.96-19.04-18.82,0-33.58,14.83-33.58,34.48Z"/><path class="cls-6" d="M1126.06,71.56c0-40.69,33.58-71.56,73.83-71.56s74.04,30.87,74.04,71.56-33.18,71.56-74.04,71.56-73.83-30.47-73.83-71.56Zm107.21,0c0-18.65-14.97-34.48-33.38-34.48s-33.18,15.84-33.18,34.48,14.97,34.48,33.18,34.48,33.38-15.43,33.38-34.48Z"/><path class="cls-6" d="M1323.72,68.35v71.96h-38.63V3.01h45.11l43.7,73.36V3.01h38.64V140.31h-45.11l-43.7-71.96Z"/><path class="cls-6" d="M1498.53,143.32c-43.29,0-74.84-31.87-74.84-71.36S1453.42,0,1499.74,0c31.76,0,51.99,15.63,60.89,30.07l-31.35,22.25c-8.09-10.23-17.6-15.84-30.55-15.84-19.62,0-34.18,14.83-34.18,36.08s15.37,35.28,34.38,35.28c11.73,0,21.24-4.81,27.31-14.83h-31.76v-31.67h75.45v10.23c0,43.49-32.16,71.76-71.41,71.76Z"/><path class="cls-6" d="M1620.13,140.31h-39.85V3.01h62.71c28.52,0,49.15,16.24,49.15,47.5,0,19.04-10.92,35.08-29.53,42.3l39.24,47.5h-50.57l-31.15-42.3v42.3Zm0-102.43v28.27h13.35c12.54,0,18.01-5.62,18.01-13.83,0-8.62-4.46-14.44-18.01-14.44h-13.35Z"/><path class="cls-6" d="M1706.53,3.01h105.8V36.68h-65.95v18.04h59.87v33.27h-59.87v18.64h66.35v33.68h-106.2V3.01Z"/><path class="cls-6" d="M1820.65,96.61h39.44c.61,7.82,5.26,15.44,19.83,15.44,9.71,0,15.98-3.21,15.98-9.22s-8.7-8.82-20.43-11.63c-21.85-5.21-53.2-11.63-53.2-46.1,0-27.06,21.24-44.7,53.81-44.7,34.19,0,54.41,18.24,56.64,47.51h-38.84c-.41-7.02-2.83-15.84-18.41-15.84-9.71,0-13.95,4.21-13.95,9.02,0,8.62,11.12,11.23,24.88,14.23,21.64,4.81,49.56,10.83,49.56,43.3,0,25.26-19.82,44.3-57.04,44.3s-56.24-16.43-58.26-46.3Z"/><path class="cls-6" d="M1944.06,71.56c0-40.69,33.58-71.56,73.83-71.56s74.04,30.87,74.04,71.56-33.18,71.56-74.04,71.56-73.83-30.47-73.83-71.56Zm107.21,0c0-18.65-14.97-34.48-33.38-34.48s-33.18,15.84-33.18,34.48,14.97,34.48,33.18,34.48,33.38-15.43,33.38-34.48Z"/></g><g><path class="cls-6" d="M820.95,331.86V194.55h39.85v137.31h-39.85Z"/><path class="cls-6" d="M913.6,259.9v71.96h-38.63V194.55h45.11l43.7,73.36v-73.36h38.64v137.31h-45.11l-43.7-71.96Z"/><path class="cls-6" d="M1050.98,331.86v-102.43h-38.43v-34.87h116.72v34.87h-38.44v102.43h-39.85Z"/><path class="cls-6" d="M1139.41,194.55h105.8v33.67h-65.95v18.04h59.88v33.27h-59.88v18.65h66.35v33.67h-106.2V194.55Z"/><path class="cls-6" d="M1297.62,331.86h-39.85V194.55h62.71c28.52,0,49.15,16.24,49.15,47.5,0,19.04-10.92,35.08-29.53,42.3l39.24,47.5h-50.57l-31.15-42.3v42.3Zm0-102.43v28.27h13.35c12.54,0,18.01-5.62,18.01-13.83,0-8.62-4.46-14.44-18.01-14.44h-13.35Z"/><path class="cls-6" d="M1422.66,259.9v71.96h-38.63V194.55h45.11l43.7,73.36v-73.36h38.64v137.31h-45.11l-43.7-71.96Z"/><path class="cls-6" d="M1614.66,311.81h-48.55l-6.27,20.05h-40.25l46.53-137.31h50.98l46.32,137.31h-42.48l-6.27-20.05Zm-24.27-78.57l-14.57,46.7h28.93l-14.36-46.7Z"/><path class="cls-6" d="M1698.02,263.1c0,20.45,14.97,34.68,34.59,34.68,15.18,0,25.89-8.42,32.16-19.04l30.14,21.65c-12.54,19.64-32.57,34.28-63.92,34.28-40.45,0-73.63-30.27-73.63-71.56s33.78-71.56,74.24-71.56c28.92,0,49.76,12.83,63.11,34.28l-31.15,21.85c-7.08-12.22-17.4-19.04-31.96-19.04-18.82,0-33.58,14.83-33.58,34.48Z"/><path class="cls-6" d="M1804.46,331.86V194.55h39.85v137.31h-39.85Z"/><path class="cls-6" d="M1855.45,263.1c0-40.69,33.58-71.56,73.83-71.56s74.04,30.87,74.04,71.56-33.18,71.56-74.04,71.56-73.83-30.47-73.83-71.56Zm107.21,0c0-18.65-14.97-34.48-33.38-34.48s-33.18,15.84-33.18,34.48,14.97,34.48,33.18,34.48,33.38-15.44,33.38-34.48Z"/><path class="cls-6" d="M2053.11,259.9v71.96h-38.63V194.55h45.11l43.7,73.36v-73.36h38.64v137.31h-45.11l-43.7-71.96Z"/><path class="cls-6" d="M2245.11,311.81h-48.55l-6.27,20.05h-40.25l46.53-137.31h50.98l46.32,137.31h-42.48l-6.27-20.05Zm-24.27-78.57l-14.57,46.7h28.93l-14.36-46.7Z"/><path class="cls-6" d="M2301.99,194.55h39.85v102.43h58.67v34.88h-98.51V194.55Z"/></g><g><path class="cls-6" d="M820.94,390.03h58.87c45.52,0,73.63,30.07,73.63,67.95s-28.12,69.36-73.63,69.36h-58.87v-137.31Zm39.85,34.87v67.55h19.01c20.23,0,32.97-14.43,32.97-33.47s-12.74-34.08-32.97-34.08h-19.01Z"/><path class="cls-6" d="M964.6,390.03h105.8v33.67h-65.95v18.04h59.88v33.27h-59.88v18.64h66.35v33.68h-106.2v-137.31Z"/><path class="cls-6" d="M1121.4,527.33v-137.31h39.85v137.31h-39.85Z"/><path class="cls-6" d="M1214.06,455.37v71.96h-38.64v-137.31h45.11l43.7,73.36v-73.36h38.63v137.31h-45.11l-43.7-71.96Z"/><path class="cls-6" d="M1388.86,530.34c-43.29,0-74.85-31.87-74.85-71.36s29.74-71.96,76.06-71.96c31.76,0,51.99,15.63,60.89,30.07l-31.35,22.25c-8.09-10.23-17.6-15.84-30.54-15.84-19.62,0-34.19,14.83-34.19,36.08s15.38,35.28,34.39,35.28c11.73,0,21.24-4.81,27.31-14.83h-31.76v-31.67h75.45v10.23c0,43.49-32.16,71.76-71.41,71.76Z"/><path class="cls-6" d="M1470.62,390.03h105.8v33.67h-65.95v18.04h59.87v33.27h-59.87v18.64h66.35v33.68h-106.2v-137.31Z"/><path class="cls-6" d="M1627.61,455.37v71.96h-38.63v-137.31h45.11l43.7,73.36v-73.36h38.64v137.31h-45.11l-43.7-71.96Z"/><path class="cls-6" d="M1730.6,527.33v-137.31h39.85v137.31h-39.85Z"/><path class="cls-6" d="M1784.63,390.03h105.8v33.67h-65.95v18.04h59.88v33.27h-59.88v18.64h66.35v33.68h-106.2v-137.31Z"/><path class="cls-6" d="M1942.84,527.33h-39.85v-137.31h62.71c28.52,0,49.15,16.24,49.15,47.5,0,19.04-10.92,35.08-29.53,42.3l39.24,47.5h-50.57l-31.15-42.3v42.3Zm0-102.43v28.27h13.35c12.54,0,18.01-5.62,18.01-13.83,0-8.62-4.46-14.44-18.01-14.44h-13.35Z"/><path class="cls-6" d="M2024.38,383.01v-31.07l50.98-10.82v31.47l-50.98,10.42Zm4.86,144.32v-137.31h39.85v137.31h-39.85Z"/><path class="cls-6" d="M2172.26,507.29h-48.55l-6.27,20.05h-40.25l46.53-137.31h50.98l46.32,137.31h-42.48l-6.27-20.05Zm-24.27-78.57l-14.57,46.7h28.93l-14.36-46.7Z"/></g><g><path class="cls-1" d="M831.61,571.04h67.93v8.03h-59.17v43.4h55.04v8.02h-55.04v44.71h62.47v8.03h-71.23v-112.19Z"/><path class="cls-1" d="M918.06,658.33c1.49,11.63,10.58,18.51,26.28,18.51s23.14-6.23,23.14-16.05c0-11.79-12.23-13.76-25.12-16.05-14.38-2.46-29.42-5.24-29.42-22.11,0-13.43,11.4-22.6,29.09-22.6s30.08,9.5,31.07,24.24h-8.1c-.83-8.52-7.77-16.7-23.14-16.7-13.06,0-20.66,5.89-20.66,14.74,0,10.32,10.08,12.78,21.49,14.9,15.21,2.79,32.89,4.75,32.89,23.26,0,13.92-11.57,24.07-31.41,24.07s-32.39-9.01-34.38-26.2h8.27Z"/><path class="cls-1" d="M994.42,667.01v44.71h-8.1v-110.38h8.1v16.05c6.78-10.15,18.68-17.36,34.54-17.36,23.64,0,42.15,18.34,42.15,42.09s-18.51,42.25-42.15,42.25c-15.87,0-27.77-7.21-34.54-17.36Zm-.5-24.73c0,19.49,15.04,34.4,34.54,34.4s34.54-15.07,34.54-34.4-14.71-34.56-34.54-34.56-34.54,14.9-34.54,34.56Z"/><path class="cls-1" d="M1164.5,642.12c0,23.91-18.51,42.25-42.48,42.25s-42.64-18.34-42.64-42.25,18.51-42.09,42.64-42.09,42.48,18.34,42.48,42.09Zm-77.02,.16c0,19.33,14.71,34.4,34.54,34.4s34.38-15.07,34.38-34.4-14.71-34.56-34.38-34.56-34.54,15.07-34.54,34.56Z"/><path class="cls-1" d="M1252.45,663.9c-7.61,12.44-19.83,20.47-38.02,20.47-24.3,0-41.65-18.51-41.65-42.42s17.36-41.93,41.65-41.93c19.01,0,30.58,8.19,38.02,20.64l-6.28,4.26c-6.44-10.48-15.7-17.03-31.73-17.03-20,0-33.55,14.9-33.55,34.23s13.72,34.39,33.72,34.39c16.03,0,25.12-6.39,31.57-16.87l6.28,4.26Z"/><path class="cls-1" d="M1270.47,613.79c4.79-7.37,13.22-13.76,27.6-13.76,19.34,0,32.06,12.94,32.06,33.08v50.12h-8.09v-49.13c0-16.54-9.26-26.37-24.79-26.37s-26.77,10.81-26.77,28.67v46.84h-8.1v-112.19h8.1v42.75Z"/><path class="cls-1" d="M1375.43,683.23v-7.53l44.79-41.44c11.07-9.99,17.85-17.52,17.85-32.27,0-13.76-10.08-24.07-25.78-24.07s-23.31,6.71-30.08,17.85l-6.94-4.1c7.77-13.1,18.68-21.78,37.02-21.78,20.66,0,34.87,14.25,34.87,32.1s-8.92,26.37-21.16,37.67l-38.84,36.04h61.16v7.53h-72.89Z"/><path class="cls-1" d="M1460.06,607.89c0-21.78,16.69-38,38.51-38s38.18,16.21,38.18,38v38.98c0,21.94-16.69,38.16-38.18,38.16s-38.51-16.21-38.51-38.16v-38.98Zm68.1,0c0-17.52-12.57-30.14-29.59-30.14s-29.91,12.61-29.91,30.14v38.98c0,17.52,12.56,30.29,29.91,30.29s29.59-12.77,29.59-30.29v-38.98Z"/><path class="cls-1" d="M1545.36,683.23v-7.53l44.79-41.44c11.07-9.99,17.85-17.52,17.85-32.27,0-13.76-10.08-24.07-25.78-24.07s-23.31,6.71-30.08,17.85l-6.94-4.1c7.77-13.1,18.68-21.78,37.02-21.78,20.66,0,34.87,14.25,34.87,32.1s-8.93,26.37-21.16,37.67l-38.84,36.04h61.15v7.53h-72.88Z"/><path class="cls-1" d="M1627.68,683.23v-7.53l44.8-41.44c11.07-9.99,17.85-17.52,17.85-32.27,0-13.76-10.08-24.07-25.78-24.07s-23.31,6.71-30.08,17.85l-6.94-4.1c7.77-13.1,18.67-21.78,37.02-21.78,20.66,0,34.87,14.25,34.87,32.1s-8.92,26.37-21.16,37.67l-38.84,36.04h61.15v7.53h-72.89Z"/></g></svg>