<?xml version="1.0" encoding="UTF-8"?><svg id="Capa_1" xmlns="http://www.w3.org/2000/svg" viewBox="0 0 2400.19 847.5"><defs><style>.cls-1{fill:#fff;}.cls-2{fill:#2c2e35;}.cls-3{stroke:#000;stroke-miterlimit:10;stroke-width:20px;}</style></defs><rect class="cls-2" width="2400.19" height="847.5"/><path class="cls-1" d="M730.91,490.93l40.02-.51-1.66-130.4-40.02,.51c-5.11-16.98-12.13-33.36-20.93-48.75l27.95-28.66-93.37-91.03-27.95,28.66c-15.62-8.4-32.18-15.01-49.26-19.68l-.51-40.02-78.11,.99V695.59l84.88-1.08-.51-40.02c16.96-5.1,33.34-12.13,48.75-20.92l28.66,27.94,91.04-93.37-28.67-27.94c8.4-15.6,15.01-32.15,19.68-49.26Z"/><path class="cls-3" d="M360.49,499.51c-2.66-7.73-6.2-18.06-10.66-31.04,25.2,0,48.73,.91,72.11-.54,7.25-.45,14.11-7.31,21.15-11.23-6.99-3.95-13.92-11.17-20.99-11.32-48.81-1.04-97.69-1.49-146.47,.1-10.13,.33-22.05,7.96-29.51,15.73-17.42,18.12-35.91,29.76-62.22,25-14.65-2.65-25.15,1.67-33.63,16.43-11.28,19.63-36.04,25.38-57.28,17.48-21.27-7.91-34.83-28.45-33.33-50.49,1.52-22.42,17.71-41.55,39.07-46.15,22.59-4.86,44.09,4.63,55.74,23.81,3.93,6.47,9.19,16.8,14.25,17.05,15.44,.76,38.21,3.37,45.38-5.3,28.77-34.74,64.9-38.59,104.86-35.23,1.31,.11,2.69-.55,5.65-1.2-1.56-8.95-3.13-18.02-5.07-29.12,44.95,0,88.79,0,132.64,0,11.86,0,23.87,1.07,35.51-.55,5.53-.77,10.34-6.72,15.47-10.32-5.26-4.2-10.48-11.99-15.78-12.06-71.15-.84-142.32-.86-213.47-.09-5.57,.06-12.86,6.46-16.28,11.85-14.07,22.18-35.62,32.61-58.19,26.52-22.85-6.16-38.26-25.89-38.31-49.05-.05-22.03,15.29-42.68,36.14-48.63,24.14-6.89,45.89,3.19,60.48,25.92,3.58,5.58,11.74,9.93,18.52,11.32,9.38,1.92,19.47-.05,29.19,.64,10.44,.74,17.53-1.78,19.27-13.36,2.25-14.97,12.04-17.47,25.66-16.92,25.07,1.01,50.26,1.07,75.3-.27,6.22-.33,12.08-7.51,18.11-11.55-5.89-3.46-11.68-9.68-17.69-9.91-27.87-1.06-55.93-2.15-83.66,.03-24.97,1.96-45.66-3.94-61.04-23.29-18.7-23.53-43.9-16.24-67.55-15.72-3.78,.08-8.23,6.24-10.97,10.5-15.32,23.8-36.32,32.93-60.17,25.56-22.44-6.93-37.29-27.71-36.15-50.57,1.11-22.32,16.79-41.29,38.5-46.6,24.53-6,44.91,4.4,59.2,28.27,3.07,5.13,11.51,11.09,16.55,10.35,35.43-5.18,63.09,6.54,87.05,32.66,11.87,12.94,48.79,9.91,63.74-1.68,50.95-39.49,150.19-65.06,221.06-4.55,33.81,28.87,53.83,63.7,46.27,110.1-4.31,26.44,7.85,47.11,23.18,66.97,17.93,23.23,17.53,23.31-7.66,36.39-3.98,2.07-9.1,6.01-9.73,9.75-2.64,15.59-3.76,31.44-5.59,48.58-18.49,1.78-21.67,11.69-16.64,29.64,4.77,17.04-8.7,21.89-22.61,21.24-9.61-.44-19.02-4.24-28.64-5.81-29.32-4.76-37.71-1.09-47.47,26.98-5.14,14.77-12.56,18.44-27.11,18.24-51.47-.7-101.33-11.35-130.4-29.41,4.51-14.38,9-28.71,14.1-45.01,21.56,0,44.52,.73,67.38-.5,5.91-.32,11.49-6.74,17.22-10.36-5.5-3.84-10.89-10.78-16.53-11.01-28.56-1.13-57.2-1.07-85.78-.11-6.78,.23-14.52,4.19-19.87,8.73-14.34,12.17-26.91,26.47-41.61,38.15-7.45,5.92-18.13,7.62-27.01,11.94-5.47,2.66-12.12,5.5-15.1,10.24-14.84,23.56-35.43,33.4-59.88,27.13-22.06-5.66-37.11-26.12-36.7-49.89,.41-23.47,15.86-42.71,38.85-48.36,22.52-5.54,45.31,4.71,57.1,28.15,8.5,16.89,17.98,14.82,29.28,4.68,13.5-12.11,26.05-25.3,39.92-36.95,9.07-7.62,19.74-13.35,32.86-22.01Z"/><path class="cls-1" d="M360.49,499.51c-2.66-7.73-6.2-18.06-10.66-31.04,25.2,0,48.73,.91,72.11-.54,7.25-.45,14.11-7.31,21.15-11.23-6.99-3.95-13.92-11.17-20.99-11.32-48.81-1.04-97.69-1.49-146.47,.1-10.13,.33-22.05,7.96-29.51,15.73-17.42,18.12-35.91,29.76-62.22,25-14.65-2.65-25.15,1.67-33.63,16.43-11.28,19.63-36.04,25.38-57.28,17.48-21.27-7.91-34.83-28.45-33.33-50.49,1.52-22.42,17.71-41.55,39.07-46.15,22.59-4.86,44.09,4.63,55.74,23.81,3.93,6.47,9.19,16.8,14.25,17.05,15.44,.76,38.21,3.37,45.38-5.3,28.77-34.74,64.9-38.59,104.86-35.23,1.31,.11,2.69-.55,5.65-1.2-1.56-8.95-3.13-18.02-5.07-29.12,44.95,0,88.79,0,132.64,0,11.86,0,23.87,1.07,35.51-.55,5.53-.77,10.34-6.72,15.47-10.32-5.26-4.2-10.48-11.99-15.78-12.06-71.15-.84-142.32-.86-213.47-.09-5.57,.06-12.86,6.46-16.28,11.85-14.07,22.18-35.62,32.61-58.19,26.52-22.85-6.16-38.26-25.89-38.31-49.05-.05-22.03,15.29-42.68,36.14-48.63,24.14-6.89,45.89,3.19,60.48,25.92,3.58,5.58,11.74,9.93,18.52,11.32,9.38,1.92,19.47-.05,29.19,.64,10.44,.74,17.53-1.78,19.27-13.36,2.25-14.97,12.04-17.47,25.66-16.92,25.07,1.01,50.26,1.07,75.3-.27,6.22-.33,12.08-7.51,18.11-11.55-5.89-3.46-11.68-9.68-17.69-9.91-27.87-1.06-55.93-2.15-83.66,.03-24.97,1.96-45.66-3.94-61.04-23.29-18.7-23.53-43.9-16.24-67.55-15.72-3.78,.08-8.23,6.24-10.97,10.5-15.32,23.8-36.32,32.93-60.17,25.56-22.44-6.93-37.29-27.71-36.15-50.57,1.11-22.32,16.79-41.29,38.5-46.6,24.53-6,44.91,4.4,59.2,28.27,3.07,5.13,11.51,11.09,16.55,10.35,35.43-5.18,63.09,6.54,87.05,32.66,11.87,12.94,48.79,9.91,63.74-1.68,50.95-39.49,150.19-65.06,221.06-4.55,33.81,28.87,53.83,63.7,46.27,110.1-4.31,26.44,7.85,47.11,23.18,66.97,17.93,23.23,17.53,23.31-7.66,36.39-3.98,2.07-9.1,6.01-9.73,9.75-2.64,15.59-3.76,31.44-5.59,48.58-18.49,1.78-21.67,11.69-16.64,29.64,4.77,17.04-8.7,21.89-22.61,21.24-9.61-.44-19.02-4.24-28.64-5.81-29.32-4.76-37.71-1.09-47.47,26.98-5.14,14.77-12.56,18.44-27.11,18.24-51.47-.7-101.33-11.35-130.4-29.41,4.51-14.38,9-28.71,14.1-45.01,21.56,0,44.52,.73,67.38-.5,5.91-.32,11.49-6.74,17.22-10.36-5.5-3.84-10.89-10.78-16.53-11.01-28.56-1.13-57.2-1.07-85.78-.11-6.78,.23-14.52,4.19-19.87,8.73-14.34,12.17-26.91,26.47-41.61,38.15-7.45,5.92-18.13,7.62-27.01,11.94-5.47,2.66-12.12,5.5-15.1,10.24-14.84,23.56-35.43,33.4-59.88,27.13-22.06-5.66-37.11-26.12-36.7-49.89,.41-23.47,15.86-42.71,38.85-48.36,22.52-5.54,45.31,4.71,57.1,28.15,8.5,16.89,17.98,14.82,29.28,4.68,13.5-12.11,26.05-25.3,39.92-36.95,9.07-7.62,19.74-13.35,32.86-22.01Z"/><g><path class="cls-1" d="M211.58,391.65c17.64,.11,31.81-13.66,32.19-31.27,.38-17.48-13.38-32.33-30.61-33.04-17.94-.74-33.4,14.33-33.34,32.51,.05,17.32,14.41,31.7,31.76,31.8Z"/><path class="cls-1" d="M110.9,504.48c17.55-.21,31.6-14.36,31.65-31.86,.05-17.93-15.79-33.17-33.6-32.33-17.25,.81-30.72,15.57-30.35,33.25,.38,17.78,14.33,31.15,32.3,30.93Z"/><path class="cls-1" d="M213.32,607.47c17.07-.31,31.35-15.12,31.3-32.46-.05-17.83-13.82-31.71-31.57-31.84-18.22-.13-33.37,15.29-32.63,33.19,.7,16.96,15.99,31.42,32.91,31.11Z"/><path class="cls-1" d="M157.98,213.78c-17.52-.36-32.03,13.35-32.64,30.84-.62,17.73,12.63,32.18,30.26,33.01,18.53,.88,33.66-13.34,33.71-31.67,.04-17.5-13.9-31.82-31.33-32.18Z"/></g><g><path class="cls-1" d="M873.49,230.94l-41.18-131.81h40.22l25.98,90.25,25.98-90.25h38.87l-41.38,131.81h-48.49Z"/><path class="cls-1" d="M1035.74,164.94c0,19.63,14.24,33.29,32.91,33.29,14.44,0,24.63-8.08,30.6-18.28l28.67,20.79c-11.93,18.86-30.98,32.91-60.81,32.91-38.48,0-70.04-29.06-70.04-68.7s32.13-68.7,70.62-68.7c27.51,0,47.34,12.32,60.04,32.91l-29.63,20.97c-6.73-11.74-16.55-18.28-30.4-18.28-17.9,0-31.95,14.24-31.95,33.1Z"/><path class="cls-1" d="M1128.33,164.94c0-39.06,31.94-68.7,70.23-68.7s70.43,29.63,70.43,68.7-31.56,68.7-70.43,68.7-70.23-29.25-70.23-68.7Zm101.99,0c0-17.9-14.24-33.1-31.75-33.1s-31.56,15.2-31.56,33.1,14.24,33.1,31.56,33.1,31.75-14.81,31.75-33.1Z"/><path class="cls-1" d="M1316.36,161.86v69.08h-36.75V99.13h42.91l41.57,70.43V99.13h36.76V230.94h-42.91l-41.57-69.08Z"/><path class="cls-1" d="M1482.65,233.83c-41.18,0-71.2-30.6-71.2-68.51s28.28-69.08,72.35-69.08c30.21,0,49.45,15.01,57.92,28.86l-29.83,21.36c-7.7-9.82-16.75-15.2-29.06-15.2-18.66,0-32.52,14.24-32.52,34.64s14.62,33.87,32.71,33.87c11.16,0,20.21-4.62,25.98-14.24h-30.21v-30.41h71.78v9.82c0,41.75-30.6,68.89-67.93,68.89Z"/><path class="cls-1" d="M1598.32,230.94h-37.9V99.13h59.65c27.13,0,46.76,15.59,46.76,45.6,0,18.28-10.39,33.68-28.09,40.61l37.33,45.6h-48.11l-29.63-40.61v40.61Zm0-98.33v27.14h12.7c11.93,0,17.13-5.39,17.13-13.28,0-8.27-4.24-13.86-17.13-13.86h-12.7Z"/><path class="cls-1" d="M1680.52,99.13h100.64v32.33h-62.73v17.32h56.96v31.94h-56.96v17.89h63.11v32.33h-101.02V99.13Z"/><path class="cls-1" d="M1789.07,188.99h37.52c.58,7.5,5,14.82,18.86,14.82,9.24,0,15.2-3.08,15.2-8.85s-8.27-8.47-19.44-11.16c-20.78-5-50.61-11.16-50.61-44.26,0-25.98,20.21-42.91,51.19-42.91,32.52,0,51.76,17.51,53.88,45.61h-36.95c-.39-6.74-2.7-15.2-17.52-15.2-9.24,0-13.27,4.04-13.27,8.66,0,8.27,10.58,10.78,23.67,13.66,20.59,4.62,47.14,10.4,47.14,41.57,0,24.25-18.86,42.52-54.26,42.52s-53.49-15.78-55.42-44.45Z"/><path class="cls-1" d="M1906.47,164.94c0-39.06,31.94-68.7,70.23-68.7s70.43,29.63,70.43,68.7-31.56,68.7-70.43,68.7-70.23-29.25-70.23-68.7Zm101.99,0c0-17.9-14.24-33.1-31.75-33.1s-31.56,15.2-31.56,33.1,14.24,33.1,31.56,33.1,31.75-14.81,31.75-33.1Z"/></g><g><path class="cls-1" d="M838.09,414.82v-131.81h37.91v131.81h-37.91Z"/><path class="cls-1" d="M926.23,345.74v69.08h-36.75v-131.81h42.91l41.57,70.43v-70.43h36.76v131.81h-42.91l-41.57-69.08Z"/><path class="cls-1" d="M1056.91,414.82v-98.33h-36.56v-33.48h111.03v33.48h-36.56v98.33h-37.91Z"/><path class="cls-1" d="M1141.03,283.01h100.64v32.33h-62.73v17.32h56.96v31.94h-56.96v17.9h63.11v32.33h-101.02v-131.81Z"/><path class="cls-1" d="M1291.53,414.82h-37.91v-131.81h59.65c27.13,0,46.76,15.59,46.76,45.6,0,18.28-10.39,33.68-28.09,40.61l37.33,45.6h-48.11l-29.63-40.61v40.61Zm0-98.33v27.14h12.7c11.93,0,17.13-5.39,17.13-13.28,0-8.27-4.24-13.86-17.13-13.86h-12.7Z"/><path class="cls-1" d="M1410.48,345.74v69.08h-36.75v-131.81h42.91l41.57,70.43v-70.43h36.76v131.81h-42.91l-41.57-69.08Z"/><path class="cls-1" d="M1593.12,395.58h-46.18l-5.97,19.24h-38.29l44.26-131.81h48.49l44.07,131.81h-40.41l-5.97-19.24Zm-23.09-75.43l-13.86,44.83h27.52l-13.66-44.83Z"/><path class="cls-1" d="M1672.42,348.82c0,19.63,14.24,33.29,32.91,33.29,14.44,0,24.63-8.08,30.6-18.28l28.67,20.79c-11.93,18.86-30.98,32.91-60.81,32.91-38.48,0-70.04-29.06-70.04-68.7s32.13-68.7,70.62-68.7c27.51,0,47.34,12.32,60.04,32.91l-29.63,20.97c-6.73-11.74-16.55-18.28-30.4-18.28-17.9,0-31.95,14.24-31.95,33.1Z"/><path class="cls-1" d="M1773.68,414.82v-131.81h37.91v131.81h-37.91Z"/><path class="cls-1" d="M1822.17,348.82c0-39.06,31.94-68.7,70.23-68.7s70.43,29.63,70.43,68.7-31.56,68.7-70.43,68.7-70.23-29.25-70.23-68.7Zm101.99,0c0-17.9-14.24-33.1-31.75-33.1s-31.56,15.2-31.56,33.1,14.24,33.1,31.56,33.1,31.75-14.82,31.75-33.1Z"/><path class="cls-1" d="M2010.2,345.74v69.08h-36.75v-131.81h42.91l41.57,70.43v-70.43h36.76v131.81h-42.91l-41.57-69.08Z"/><path class="cls-1" d="M2192.85,395.58h-46.18l-5.97,19.24h-38.29l44.26-131.81h48.49l44.07,131.81h-40.41l-5.97-19.24Zm-23.09-75.43l-13.86,44.83h27.52l-13.66-44.83Z"/><path class="cls-1" d="M2246.95,283.01h37.9v98.33h55.81v33.48h-93.71v-131.81Z"/></g><g><path class="cls-1" d="M838.09,470.66h56c43.3,0,70.05,28.86,70.05,65.23s-26.75,66.58-70.05,66.58h-56v-131.81Zm37.91,33.48v64.85h18.09c19.24,0,31.37-13.85,31.37-32.13s-12.12-32.71-31.37-32.71h-18.09Z"/><path class="cls-1" d="M974.74,470.66h100.64v32.33h-62.73v17.32h56.96v31.94h-56.96v17.89h63.12v32.33h-101.03v-131.81Z"/><path class="cls-1" d="M1123.9,602.48v-131.81h37.91v131.81h-37.91Z"/><path class="cls-1" d="M1212.04,533.39v69.08h-36.76v-131.81h42.91l41.56,70.43v-70.43h36.76v131.81h-42.91l-41.56-69.08Z"/><path class="cls-1" d="M1378.33,605.36c-41.18,0-71.2-30.6-71.2-68.51s28.29-69.08,72.36-69.08c30.21,0,49.45,15.01,57.92,28.86l-29.83,21.36c-7.69-9.82-16.74-15.2-29.06-15.2-18.67,0-32.52,14.24-32.52,34.64s14.62,33.87,32.71,33.87c11.16,0,20.21-4.62,25.98-14.24h-30.21v-30.41h71.78v9.82c0,41.75-30.6,68.89-67.93,68.89Z"/><path class="cls-1" d="M1456.1,470.66h100.64v32.33h-62.73v17.32h56.96v31.94h-56.96v17.89h63.11v32.33h-101.02v-131.81Z"/><path class="cls-1" d="M1605.44,533.39v69.08h-36.75v-131.81h42.91l41.57,70.43v-70.43h36.76v131.81h-42.91l-41.57-69.08Z"/><path class="cls-1" d="M1703.42,602.48v-131.81h37.91v131.81h-37.91Z"/><path class="cls-1" d="M1754.81,470.66h100.64v32.33h-62.74v17.32h56.96v31.94h-56.96v17.89h63.12v32.33h-101.02v-131.81Z"/><path class="cls-1" d="M1905.31,602.48h-37.91v-131.81h59.65c27.13,0,46.76,15.59,46.76,45.6,0,18.28-10.39,33.68-28.09,40.61l37.33,45.6h-48.11l-29.63-40.61v40.61Zm0-98.33v27.14h12.7c11.93,0,17.13-5.39,17.13-13.28,0-8.27-4.24-13.86-17.13-13.86h-12.7Z"/><path class="cls-1" d="M1982.88,463.93v-29.83l48.49-10.39v30.21l-48.49,10.01Zm4.62,138.55v-131.81h37.9v131.81h-37.9Z"/><path class="cls-1" d="M2123.56,583.23h-46.18l-5.97,19.24h-38.29l44.26-131.81h48.49l44.07,131.81h-40.41l-5.97-19.24Zm-23.09-75.43l-13.86,44.83h27.52l-13.66-44.83Z"/></g><g><path class="cls-1" d="M848.23,644.43h64.62v7.71h-56.28v41.67h52.35v7.7h-52.35v42.92h59.43v7.71h-67.76v-107.7Z"/><path class="cls-1" d="M930.47,728.23c1.41,11.16,10.06,17.77,25,17.77s22.01-5.98,22.01-15.41c0-11.32-11.63-13.21-23.9-15.41-13.68-2.36-27.99-5.03-27.99-21.23,0-12.89,10.85-21.69,27.67-21.69s28.61,9.12,29.56,23.27h-7.7c-.79-8.18-7.39-16.03-22.01-16.03-12.42,0-19.65,5.65-19.65,14.15,0,9.9,9.59,12.27,20.44,14.31,14.46,2.67,31.29,4.56,31.29,22.33,0,13.37-11.01,23.11-29.88,23.11s-30.82-8.65-32.7-25.16h7.86Z"/><path class="cls-1" d="M1003.12,736.57v42.92h-7.71v-105.97h7.71v15.41c6.44-9.75,17.77-16.66,32.86-16.66,22.48,0,40.09,17.61,40.09,40.41s-17.61,40.56-40.09,40.56c-15.09,0-26.41-6.92-32.86-16.66Zm-.47-23.75c0,18.71,14.31,33.02,32.86,33.02s32.86-14.46,32.86-33.02-13.99-33.17-32.86-33.17-32.86,14.31-32.86,33.17Z"/><path class="cls-1" d="M1164.91,712.67c0,22.95-17.61,40.56-40.41,40.56s-40.56-17.61-40.56-40.56,17.61-40.41,40.56-40.41,40.41,17.61,40.41,40.41Zm-73.27,.15c0,18.56,13.99,33.02,32.86,33.02s32.7-14.46,32.7-33.02-13.99-33.17-32.7-33.17-32.86,14.46-32.86,33.17Z"/><path class="cls-1" d="M1248.56,733.58c-7.24,11.94-18.87,19.65-36.16,19.65-23.11,0-39.62-17.77-39.62-40.72s16.51-40.25,39.62-40.25c18.08,0,29.09,7.86,36.16,19.81l-5.98,4.09c-6.13-10.06-14.94-16.35-30.18-16.35-19.02,0-31.92,14.31-31.92,32.86s13.05,33.01,32.07,33.01c15.25,0,23.9-6.13,30.03-16.19l5.98,4.09Z"/><path class="cls-1" d="M1265.7,685.47c4.56-7.08,12.58-13.21,26.26-13.21,18.4,0,30.5,12.42,30.5,31.76v48.11h-7.71v-47.17c0-15.88-8.8-25.31-23.59-25.31s-25.47,10.38-25.47,27.52v44.96h-7.71v-107.7h7.71v41.04Z"/><path class="cls-1" d="M1365.55,752.13v-7.23l42.61-39.78c10.53-9.59,16.98-16.82,16.98-30.97,0-13.21-9.59-23.11-24.53-23.11s-22.16,6.44-28.61,17.14l-6.61-3.93c7.39-12.58,17.77-20.91,35.22-20.91,19.65,0,33.17,13.68,33.17,30.82s-8.49,25.31-20.12,36.16l-36.95,34.6h58.18v7.23h-69.34Z"/><path class="cls-1" d="M1446.06,679.81c0-20.91,15.88-36.48,36.63-36.48s36.32,15.56,36.32,36.48v37.42c0,21.07-15.88,36.63-36.32,36.63s-36.63-15.56-36.63-36.63v-37.42Zm64.78,0c0-16.82-11.95-28.93-28.15-28.93s-28.45,12.11-28.45,28.93v37.42c0,16.82,11.94,29.08,28.45,29.08s28.15-12.26,28.15-29.08v-37.42Z"/><path class="cls-1" d="M1527.2,752.13v-7.23l42.61-39.78c10.53-9.59,16.98-16.82,16.98-30.97,0-13.21-9.59-23.11-24.53-23.11s-22.17,6.44-28.62,17.14l-6.6-3.93c7.39-12.58,17.77-20.91,35.22-20.91,19.65,0,33.17,13.68,33.17,30.82s-8.49,25.31-20.12,36.16l-36.95,34.6h58.17v7.23h-69.33Z"/><path class="cls-1" d="M1605.5,752.13v-7.23l42.61-39.78c10.53-9.59,16.98-16.82,16.98-30.97,0-13.21-9.59-23.11-24.53-23.11s-22.17,6.44-28.62,17.14l-6.6-3.93c7.39-12.58,17.76-20.91,35.22-20.91,19.65,0,33.17,13.68,33.17,30.82s-8.49,25.31-20.12,36.16l-36.95,34.6h58.17v7.23h-69.34Z"/></g></svg>