<?xml version="1.0" standalone="no"?>
<!DOCTYPE svg PUBLIC "-//W3C//DTD SVG 20010904//EN"
 "http://www.w3.org/TR/2001/REC-SVG-20010904/DTD/svg10.dtd">
<svg version="1.0" xmlns="http://www.w3.org/2000/svg"
 width="512.000000pt" height="512.000000pt" viewBox="0 0 512.000000 512.000000"
 preserveAspectRatio="xMidYMid meet">

<g transform="translate(0.000000,512.000000) scale(0.100000,-0.100000)"
fill="#000000" stroke="none">
<path d="M590 3307 c0 -1987 -5 -1840 67 -1987 74 -152 228 -268 428 -322 76
-20 109 -22 620 -28 596 -8 603 -8 733 -74 37 -19 82 -50 101 -69 l33 -35 40
39 c23 22 69 53 103 69 128 61 140 62 725 70 600 7 604 8 769 86 101 49 224
169 269 265 66 139 62 1 62 1981 l0 1798 -1975 0 -1975 0 0 -1793z m3678 -134
l-3 -1658 -28 -56 c-30 -63 -93 -126 -156 -158 -98 -50 -132 -53 -696 -61
-577 -8 -569 -7 -735 -71 l-79 -30 -48 21 c-26 12 -88 33 -138 47 l-90 26
-540 7 c-593 8 -597 8 -718 72 -69 37 -111 82 -146 158 l-26 55 -3 1653 -2
1652 1705 0 1705 0 -2 -1657z"/>
<path d="M2205 4378 c-3 -7 -6 -59 -7 -116 l-3 -103 -60 -21 c-33 -11 -94 -35
-135 -54 l-74 -35 -78 78 -78 78 -257 -258 -258 -257 78 -78 78 -78 -35 -74
c-18 -41 -44 -103 -56 -137 l-22 -62 -112 -3 -111 -3 -3 -308 c-1 -170 1 -307
6 -305 4 1 54 39 110 83 l102 80 0 118 0 117 89 0 89 0 21 91 c28 122 70 225
138 337 l56 93 -64 65 -64 64 108 107 107 108 64 -64 65 -64 86 52 c131 78
236 118 413 157 21 4 22 9 22 94 l0 90 150 0 150 0 0 -90 c0 -90 0 -90 28 -96
181 -41 330 -100 436 -173 24 -17 48 -31 53 -31 5 0 35 27 68 60 l60 60 107
-107 108 -108 -60 -60 c-33 -33 -60 -64 -60 -68 0 -5 14 -28 30 -52 69 -100
140 -279 174 -437 l6 -28 90 0 90 0 0 -167 1 -168 101 -75 c56 -41 105 -77
110 -78 4 -2 7 155 6 350 l-3 353 -114 5 -114 5 -23 66 c-12 37 -36 97 -54
134 l-32 67 78 79 79 79 -258 257 -257 258 -78 -78 -78 -78 -70 32 c-38 18
-98 42 -134 54 l-65 22 -5 114 -5 114 -363 3 c-285 2 -364 0 -367 -10z"/>
<path d="M2103 2988 c-96 -10 -241 -59 -330 -111 -40 -23 -201 -143 -357 -267
l-286 -225 0 -172 c0 -95 2 -173 5 -173 3 0 169 129 368 287 204 163 392 304
432 325 89 48 197 73 280 65 119 -11 190 -50 359 -197 39 -33 99 -75 135 -93
l66 -32 146 2 c162 3 179 -2 282 -80 76 -58 145 -78 287 -86 151 -9 153 -9
353 -160 80 -61 149 -111 152 -111 3 0 5 76 5 169 l0 170 -82 60 c-152 111
-263 151 -419 151 -86 0 -87 0 -150 44 -151 103 -248 132 -406 121 -122 -8
-128 -5 -236 93 -197 179 -379 245 -604 220z"/>
<path d="M1080 321 l0 -141 578 0 c544 0 583 -1 656 -20 92 -23 181 -69 226
-115 l33 -34 43 39 c47 43 112 79 194 106 50 17 108 19 650 24 l595 5 3 138 3
137 -559 0 c-447 0 -576 -3 -643 -15 -85 -15 -203 -51 -254 -78 -26 -13 -33
-12 -84 10 -31 14 -99 37 -151 51 l-95 26 -597 4 -598 3 0 -140z"/>
</g>
</svg>
